<?xml version="1.0" encoding="utf-8"?>
<!-- Generator: Adobe Illustrator 23.0.4, SVG Export Plug-In . SVG Version: 6.00 Build 0)  -->
<svg version="1.1" id="Шар_1" xmlns="http://www.w3.org/2000/svg" xmlns:xlink="http://www.w3.org/1999/xlink" x="0px" y="0px"
	 viewBox="0 0 39 39" style="enable-background:new 0 0 39 39;" xml:space="preserve">
<style type="text/css">
	.st0{fill-rule:evenodd;clip-rule:evenodd;fill:#373650;}
	.st1{fill-rule:evenodd;clip-rule:evenodd;fill:#00ADC7;}
</style>
<g>
	<g>
		<path class="st0" d="M1.9,0h14.3c1,0,1.9,0.9,1.9,1.9v14.3c0,1-0.9,1.9-1.9,1.9H1.9c-1,0-1.9-0.9-1.9-1.9V1.9C0,0.9,0.9,0,1.9,0z"
			/>
		<path class="st0" d="M22.8,0h14.3c1,0,1.9,0.9,1.9,1.9v14.3c0,1-0.9,1.9-1.9,1.9H22.8c-1,0-1.9-0.9-1.9-1.9V1.9
			C20.9,0.9,21.8,0,22.8,0z"/>
		<path class="st1" d="M1.9,20.9h14.3c1,0,1.9,0.9,1.9,1.9v14.3c0,1-0.9,1.9-1.9,1.9H1.9c-1,0-1.9-0.9-1.9-1.9V22.8
			C0,21.8,0.9,20.9,1.9,20.9z"/>
		<path class="st0" d="M22.8,20.9h14.3c1,0,1.9,0.9,1.9,1.9v14.3c0,1-0.9,1.9-1.9,1.9H22.8c-1,0-1.9-0.9-1.9-1.9V22.8
			C20.9,21.8,21.8,20.9,22.8,20.9z"/>
	</g>
</g>
</svg>
