<svg xmlns="http://www.w3.org/2000/svg" width="209" height="41" viewBox="0 0 209 41">
    <g fill="none" fill-rule="evenodd">
        <path fill="#363650" d="M56.105 14.47h-3.046V0h3.046v14.47zM66.168 3.29c1.192 0 2.152.343 2.88 1.03.729.687 1.093 1.674 1.093 2.96v7.192h-3.024V8.156c0-1.666-.654-2.5-1.964-2.5-.706 0-1.306.25-1.798.746-.493.497-.74 1.257-.74 2.28v5.789h-3.023V3.508h2.714l.089 1.951c.367-.716.875-1.257 1.522-1.622.648-.366 1.398-.548 2.251-.548zm11.366 11.4c-2.457 0-4.164-.7-5.12-2.104l1.766-1.798c.294.629.717 1.07 1.268 1.327.552.255 1.233.383 2.042.383.647 0 1.147-.087 1.5-.263.354-.175.53-.416.53-.723 0-.249-.165-.46-.496-.636-.331-.176-.901-.344-1.71-.504-1.693-.337-2.88-.779-3.565-1.327-.684-.548-1.026-1.29-1.026-2.225 0-.614.191-1.192.574-1.732.382-.541.949-.976 1.7-1.305.75-.329 1.647-.493 2.692-.493 1.235 0 2.236.186 3 .559.766.373 1.406.96 1.92 1.765L80.735 7.19c-.324-.584-.725-1.015-1.203-1.293-.478-.278-1.077-.417-1.798-.417-.604 0-1.085.103-1.446.307-.36.205-.54.453-.54.746 0 .307.176.562.53.767.352.205.977.395 1.875.57 1.604.322 2.74.742 3.41 1.26.67.52 1.004 1.24 1.004 2.16 0 1.024-.438 1.846-1.313 2.467-.876.621-2.115.932-3.719.932zm17.92-11.181v10.963h-2.692l-.11-1.886c-.707 1.403-1.994 2.105-3.863 2.105-1.191 0-2.137-.318-2.836-.954-.698-.636-1.048-1.626-1.048-2.97V3.507h3.024v6.49c0 .848.161 1.447.485 1.798.324.35.802.526 1.435.526.765 0 1.386-.245 1.864-.735.479-.49.718-1.224.718-2.203V3.508h3.023zm9.424-.22c.515 0 .912.081 1.191.242l-.375 2.631c-.338-.22-.802-.329-1.39-.329-.721 0-1.343.26-1.865.778-.522.52-.783 1.247-.783 2.182v5.679h-3.024V3.508h2.626l.199 2.149c.603-1.579 1.743-2.368 3.42-2.368zm13.153 9.363c.309 0 .559-.03.75-.088l-.22 1.82c-.412.205-.89.307-1.435.307-1.412 0-2.258-.548-2.538-1.645-.324.541-.824.95-1.5 1.228-.677.278-1.48.417-2.406.417-1.074 0-1.913-.241-2.516-.724-.603-.482-.905-1.176-.905-2.083 0-1.783 1.435-2.938 4.304-3.464l2.648-.504v-.526c0-.585-.166-1.049-.497-1.392-.33-.344-.79-.516-1.379-.516-.677 0-1.228.146-1.655.439-.427.292-.721.767-.883 1.425l-2.405-1.009a3.634 3.634 0 0 1 1.589-2.236c.823-.54 1.898-.811 3.222-.811 1.574 0 2.802.34 3.685 1.02.883.679 1.324 1.684 1.324 3.014v4.495c0 .292.067.504.199.635.132.132.338.198.618.198zm-6.4 0c.647 0 1.24-.157 1.776-.472.537-.314.806-.741.806-1.282v-1.14l-2.361.526c-.5.117-.872.274-1.115.471-.243.198-.364.472-.364.822 0 .351.11.618.331.8.22.183.53.275.927.275zm15.559-9.362c1.191 0 2.151.343 2.88 1.03.728.687 1.092 1.674 1.092 2.96v7.192h-3.023V8.156c0-1.666-.655-2.5-1.965-2.5-.706 0-1.305.25-1.798.746-.493.497-.74 1.257-.74 2.28v5.789h-3.023V3.508h2.715l.088 1.951c.368-.716.875-1.257 1.523-1.622.647-.366 1.397-.548 2.25-.548zm12.138 0c1.456 0 2.59.292 3.398.877a4.36 4.36 0 0 1 1.656 2.346l-2.825 1.008c-.265-1.33-.979-1.995-2.141-1.995-.868 0-1.534.296-1.997.888-.464.592-.695 1.458-.695 2.598s.235 2 .706 2.576c.47.578 1.125.866 1.964.866 1.295 0 2.06-.65 2.295-1.95l2.737.876c-.236 1.009-.784 1.813-1.645 2.412-.86.6-1.975.899-3.343.899-1.824 0-3.237-.5-4.237-1.502-1-1.001-1.501-2.4-1.501-4.199 0-1.798.497-3.197 1.49-4.198.993-1.002 2.372-1.502 4.138-1.502zm17.81 5.656c0 .41-.03.804-.089 1.184h-7.812c.309 1.55 1.228 2.324 2.758 2.324.633 0 1.155-.116 1.567-.35.412-.234.7-.57.861-1.009l2.472.899a3.893 3.893 0 0 1-1.777 2.006c-.831.46-1.872.69-3.123.69-1.824 0-3.236-.5-4.237-1.501-1-1.001-1.5-2.4-1.5-4.199 0-1.798.485-3.197 1.456-4.198.971-1.002 2.34-1.502 4.105-1.502 1.706 0 3.02.49 3.94 1.469.919.98 1.378 2.375 1.378 4.187zm-5.341-3.442c-.736 0-1.32.212-1.755.636-.434.424-.71 1.052-.827 1.886h5.142c-.118-.819-.397-1.444-.839-1.875-.441-.431-1.015-.647-1.721-.647zM58.378 26.091c1.354 0 2.516.223 3.487.669.971.445 1.824 1.15 2.56 2.115l-2.097 2.04c-.382-.79-.89-1.378-1.522-1.766-.633-.387-1.435-.58-2.406-.58-.883 0-1.563.164-2.041.493-.479.329-.718.763-.718 1.304 0 .497.243.892.729 1.184.485.293 1.36.548 2.626.768 1.324.248 2.376.555 3.156.92.78.366 1.35.823 1.71 1.37.36.549.54 1.232.54 2.05 0 .892-.253 1.663-.76 2.314-.508.65-1.214 1.151-2.12 1.502-.904.35-1.938.526-3.1.526-1.604 0-2.917-.223-3.94-.669A5.792 5.792 0 0 1 52 38.303l1.81-2.148c.544.891 1.17 1.509 1.876 1.852.706.344 1.581.515 2.626.515.941 0 1.659-.146 2.152-.438.492-.292.739-.709.739-1.25 0-.394-.232-.723-.695-.986-.464-.264-1.291-.512-2.483-.746-1.368-.278-2.46-.606-3.277-.986-.817-.38-1.41-.848-1.777-1.404-.368-.555-.552-1.242-.552-2.06 0-.863.236-1.641.707-2.336.47-.694 1.158-1.238 2.063-1.633.905-.395 1.968-.592 3.189-.592zm13.639 3.508c1.78 0 3.167.504 4.16 1.513.993 1.008 1.49 2.404 1.49 4.187 0 1.784-.497 3.18-1.49 4.188-.993 1.009-2.38 1.513-4.16 1.513-1.78 0-3.167-.504-4.16-1.513-.993-1.008-1.49-2.404-1.49-4.188 0-1.783.497-3.179 1.49-4.187.993-1.009 2.38-1.513 4.16-1.513zm0 2.236c-.854 0-1.505.289-1.953.866-.45.578-.674 1.444-.674 2.598 0 1.155.225 2.021.674 2.599.448.577 1.1.866 1.953.866s1.504-.289 1.953-.866c.449-.578.673-1.444.673-2.599 0-1.154-.224-2.02-.673-2.598-.449-.577-1.1-.866-1.953-.866zm23.57 8.266c-.354.278-.795.497-1.325.658-.53.16-1.088.241-1.677.241-2.457 0-3.693-1.104-3.707-3.31v-5.635h-4.79v8.726h-3.023v-8.726h-1.92v-2.237h1.92v-1.315c0-1.199.368-2.12 1.104-2.763.735-.643 1.714-.965 2.935-.965.456 0 .868.052 1.236.154.367.102.669.241.904.416l-.33 1.996c-.339-.205-.736-.307-1.192-.307-1.177 0-1.766.562-1.766 1.688v1.096h4.922v-2.521l3.023-.833v3.354h3.597v2.237h-3.597v5.152c0 .512.136.892.408 1.14.273.249.651.373 1.137.373.633 0 1.192-.205 1.677-.614l.464 1.995zm19.487-10.283l-3.51 10.963h-3.508l-2.406-7.74-2.317 7.74h-3.487l-3.51-10.963h3.201l2.207 8.551 2.472-8.55h2.979l2.472 8.55 2.207-8.55h3.2zm12.116 9.143c.309 0 .559-.03.75-.088l-.22 1.82c-.413.205-.89.307-1.435.307-1.413 0-2.259-.548-2.538-1.644-.324.54-.824.95-1.5 1.227-.678.278-1.48.417-2.406.417-1.074 0-1.913-.241-2.516-.724-.604-.482-.905-1.176-.905-2.082 0-1.784 1.434-2.938 4.303-3.465l2.649-.504V33.7c0-.585-.166-1.049-.497-1.392-.33-.344-.79-.516-1.38-.516-.676 0-1.228.147-1.654.439-.427.292-.721.767-.883 1.425l-2.406-1.008a3.634 3.634 0 0 1 1.59-2.237c.823-.54 1.897-.811 3.221-.811 1.575 0 2.803.34 3.686 1.02.883.68 1.324 1.684 1.324 3.014v4.495c0 .292.066.504.199.636.132.131.338.197.618.197zm-6.4 0c.647 0 1.24-.157 1.776-.471.537-.315.806-.742.806-1.283v-1.14l-2.362.526c-.5.117-.871.274-1.114.471-.243.198-.364.472-.364.823 0 .35.11.617.33.8.221.183.53.274.928.274zm15.227-9.362c.515 0 .912.08 1.192.241l-.375 2.631c-.339-.22-.802-.329-1.39-.329-.721 0-1.343.26-1.865.779-.523.518-.784 1.246-.784 2.181v5.679h-3.023V29.818h2.626l.199 2.149c.603-1.579 1.743-2.368 3.42-2.368zm13.374 5.657c0 .409-.03.804-.088 1.184h-7.813c.31 1.549 1.229 2.324 2.76 2.324.632 0 1.154-.117 1.566-.351.412-.234.699-.57.86-1.009l2.472.9a3.893 3.893 0 0 1-1.776 2.005c-.831.46-1.872.691-3.123.691-1.824 0-3.237-.5-4.237-1.502-1-1.001-1.5-2.4-1.5-4.199 0-1.797.485-3.197 1.456-4.198.97-1.001 2.339-1.502 4.105-1.502 1.706 0 3.02.49 3.939 1.469.92.98 1.38 2.375 1.38 4.188zm-5.34-3.443c-.736 0-1.321.212-1.755.636-.434.424-.71 1.053-.828 1.886h5.142c-.117-.819-.397-1.444-.838-1.875-.442-.431-1.015-.647-1.722-.647zm19.707-3.07h-4.877v12.038h-3.046V28.744h-4.899V26.31h12.822v2.434zm7.261.856c1.78 0 3.167.504 4.16 1.513.993 1.008 1.49 2.404 1.49 4.187 0 1.784-.497 3.18-1.49 4.188-.993 1.009-2.38 1.513-4.16 1.513-1.78 0-3.167-.504-4.16-1.513-.993-1.008-1.49-2.404-1.49-4.188 0-1.783.497-3.179 1.49-4.187.993-1.009 2.38-1.513 4.16-1.513zm0 2.236c-.853 0-1.504.289-1.953.866-.449.578-.673 1.444-.673 2.598 0 1.155.224 2.021.673 2.599.449.577 1.1.866 1.953.866s1.504-.289 1.953-.866c.449-.578.673-1.444.673-2.599 0-1.154-.224-2.02-.673-2.598-.449-.577-1.1-.866-1.953-.866zm13.33-2.236c1.78 0 3.167.504 4.16 1.513.993 1.008 1.49 2.404 1.49 4.187 0 1.784-.497 3.18-1.49 4.188-.993 1.009-2.38 1.513-4.16 1.513-1.78 0-3.167-.504-4.16-1.513-.993-1.008-1.49-2.404-1.49-4.188 0-1.783.497-3.179 1.49-4.187.993-1.009 2.38-1.513 4.16-1.513zm0 2.236c-.854 0-1.505.289-1.953.866-.45.578-.673 1.444-.673 2.598 0 1.155.224 2.021.673 2.599.448.577 1.1.866 1.953.866s1.504-.289 1.953-.866c.449-.578.673-1.444.673-2.599 0-1.154-.224-2.02-.673-2.598-.449-.577-1.1-.866-1.953-.866zm11.233 5.46c0 .526.077.891.232 1.096.154.205.437.307.85.307.25 0 .466-.018.65-.055.184-.036.401-.099.651-.186l-.264 2.083c-.236.146-.545.259-.927.34-.383.08-.758.12-1.126.12-1.074 0-1.857-.26-2.35-.778-.493-.52-.74-1.349-.74-2.489V25.017h3.024v12.278zM203.924 41c-2.457 0-4.164-.702-5.12-2.105l1.766-1.798c.294.629.717 1.071 1.269 1.327.551.256 1.232.383 2.041.383.647 0 1.148-.087 1.5-.263.354-.175.53-.416.53-.723 0-.249-.165-.46-.496-.636-.331-.175-.901-.343-1.71-.504-1.693-.336-2.88-.779-3.565-1.327-.684-.548-1.026-1.29-1.026-2.225 0-.614.191-1.191.574-1.732.382-.541.949-.976 1.7-1.305.75-.329 1.647-.493 2.692-.493 1.235 0 2.236.186 3.001.559.765.373 1.405.961 1.92 1.765l-1.876 1.579c-.324-.585-.724-1.016-1.203-1.294-.478-.278-1.077-.417-1.798-.417-.604 0-1.085.103-1.446.307-.36.205-.54.454-.54.746 0 .307.176.563.53.767.352.205.978.395 1.875.57 1.604.322 2.74.742 3.41 1.261.67.519 1.004 1.239 1.004 2.16 0 1.023-.438 1.845-1.313 2.466-.876.621-2.115.932-3.719.932z"/>
        <rect width="19" height="19" fill="#363650" rx="2"/>
        <rect width="19" height="19" x="22" fill="#363650" rx="2"/>
        <rect width="19" height="19" y="22" fill="#00ADC7" rx="2"/>
        <rect width="19" height="19" x="22" y="22" fill="#363650" rx="2"/>
    </g>
</svg>
